<svg width="20" height="21" viewBox="0 0 20 21" fill="none" xmlns="http://www.w3.org/2000/svg">
<path fill-rule="evenodd" clip-rule="evenodd" d="M6 3.5C6 3.23478 6.10536 2.98043 6.29289 2.79289C6.48043 2.60536 6.73478 2.5 7 2.5H7.01C7.27522 2.5 7.52957 2.60536 7.71711 2.79289C7.90464 2.98043 8.01 3.23478 8.01 3.5C8.01 3.76522 7.90464 4.01957 7.71711 4.20711C7.52957 4.39464 7.27522 4.5 7.01 4.5H7C6.73478 4.5 6.48043 4.39464 6.29289 4.20711C6.10536 4.01957 6 3.76522 6 3.5ZM8 6.5C8 6.23478 7.89464 5.98043 7.70711 5.79289C7.51957 5.60536 7.26522 5.5 7 5.5C6.73478 5.5 6.48043 5.60536 6.29289 5.79289C6.10536 5.98043 6 6.23478 6 6.5V7.5C5.46957 7.5 4.96086 7.71071 4.58579 8.08579C4.21071 8.46086 4 8.96957 4 9.5V10.5C3.46957 10.5 2.96086 10.7107 2.58579 11.0858C2.21071 11.4609 2 11.9696 2 12.5V13.183C2.375 13.2881 2.73105 13.4518 3.055 13.668C3.33487 13.8545 3.66367 13.954 4 13.954C4.33633 13.954 4.66513 13.8545 4.945 13.668C5.55353 13.2622 6.26858 13.0457 7 13.0457C7.73142 13.0457 8.44647 13.2622 9.055 13.668C9.33487 13.8545 9.66367 13.954 10 13.954C10.3363 13.954 10.6651 13.8545 10.945 13.668C11.5535 13.2622 12.2686 13.0457 13 13.0457C13.7314 13.0457 14.4465 13.2622 15.055 13.668C15.3349 13.8545 15.6637 13.954 16 13.954C16.3363 13.954 16.6651 13.8545 16.945 13.668C17.2689 13.4518 17.625 13.2881 18 13.183V12.5C18 11.9696 17.7893 11.4609 17.4142 11.0858C17.0391 10.7107 16.5304 10.5 16 10.5V9.5C16 8.96957 15.7893 8.46086 15.4142 8.08579C15.0391 7.71071 14.5304 7.5 14 7.5V6.5C14 6.23478 13.8946 5.98043 13.7071 5.79289C13.5196 5.60536 13.2652 5.5 13 5.5C12.7348 5.5 12.4804 5.60536 12.2929 5.79289C12.1054 5.98043 12 6.23478 12 6.5V7.5H11V6.5C11 6.23478 10.8946 5.98043 10.7071 5.79289C10.5196 5.60536 10.2652 5.5 10 5.5C9.73478 5.5 9.48043 5.60536 9.29289 5.79289C9.10536 5.98043 9 6.23478 9 6.5V7.5H8V6.5ZM18 15.368C17.3938 15.7569 16.6873 15.9606 15.9671 15.9542C15.2469 15.9478 14.5442 15.7316 13.945 15.332C13.6651 15.1455 13.3363 15.046 13 15.046C12.6637 15.046 12.3349 15.1455 12.055 15.332C11.4465 15.7378 10.7314 15.9543 10 15.9543C9.26858 15.9543 8.55353 15.7378 7.945 15.332C7.66513 15.1455 7.33633 15.046 7 15.046C6.66367 15.046 6.33487 15.1455 6.055 15.332C5.45578 15.7316 4.75307 15.9478 4.03286 15.9542C3.31266 15.9606 2.60622 15.7569 2 15.368V17.5C2 17.7652 2.10536 18.0196 2.29289 18.2071C2.48043 18.3946 2.73478 18.5 3 18.5H17C17.2652 18.5 17.5196 18.3946 17.7071 18.2071C17.8946 18.0196 18 17.7652 18 17.5V15.368ZM9 3.5C9 3.23478 9.10536 2.98043 9.29289 2.79289C9.48043 2.60536 9.73478 2.5 10 2.5H10.01C10.2752 2.5 10.5296 2.60536 10.7171 2.79289C10.9046 2.98043 11.01 3.23478 11.01 3.5C11.01 3.76522 10.9046 4.01957 10.7171 4.20711C10.5296 4.39464 10.2752 4.5 10.01 4.5H10C9.73478 4.5 9.48043 4.39464 9.29289 4.20711C9.10536 4.01957 9 3.76522 9 3.5ZM12 3.5C12 3.23478 12.1054 2.98043 12.2929 2.79289C12.4804 2.60536 12.7348 2.5 13 2.5H13.01C13.2752 2.5 13.5296 2.60536 13.7171 2.79289C13.9046 2.98043 14.01 3.23478 14.01 3.5C14.01 3.76522 13.9046 4.01957 13.7171 4.20711C13.5296 4.39464 13.2752 4.5 13.01 4.5H13C12.7348 4.5 12.4804 4.39464 12.2929 4.20711C12.1054 4.01957 12 3.76522 12 3.5Z" fill="#1C1A27"/>
</svg>
