<svg width="17" height="4" viewBox="0 0 17 4" fill="none" xmlns="http://www.w3.org/2000/svg">
<path d="M4.86842 2C4.86842 2.53043 4.65708 3.03914 4.28088 3.41421C3.90468 3.78929 3.39445 4 2.86243 4C2.33041 4 1.82018 3.78929 1.44399 3.41421C1.06779 3.03914 0.856445 2.53043 0.856445 2C0.856445 1.46957 1.06779 0.96086 1.44399 0.585787C1.82018 0.210714 2.33041 0 2.86243 0C3.39445 0 3.90468 0.210714 4.28088 0.585787C4.65708 0.96086 4.86842 1.46957 4.86842 2ZM10.8864 2C10.8864 2.53043 10.675 3.03914 10.2988 3.41421C9.92265 3.78929 9.41242 4 8.8804 4C8.34837 4 7.83814 3.78929 7.46195 3.41421C7.08575 3.03914 6.87441 2.53043 6.87441 2C6.87441 1.46957 7.08575 0.96086 7.46195 0.585787C7.83814 0.210714 8.34837 0 8.8804 0C9.41242 0 9.92265 0.210714 10.2988 0.585787C10.675 0.96086 10.8864 1.46957 10.8864 2ZM14.8984 4C15.4304 4 15.9406 3.78929 16.3168 3.41421C16.693 3.03914 16.9043 2.53043 16.9043 2C16.9043 1.46957 16.693 0.96086 16.3168 0.585787C15.9406 0.210714 15.4304 0 14.8984 0C14.3663 0 13.8561 0.210714 13.4799 0.585787C13.1037 0.96086 12.8924 1.46957 12.8924 2C12.8924 2.53043 13.1037 3.03914 13.4799 3.41421C13.8561 3.78929 14.3663 4 14.8984 4Z" fill="#312E45"/>
</svg>
