<svg width="16" height="17" viewBox="0 0 16 17" fill="none" xmlns="http://www.w3.org/2000/svg">
<path fill-rule="evenodd" clip-rule="evenodd" d="M8 16.5C10.1217 16.5 12.1566 15.6571 13.6569 14.1569C15.1571 12.6566 16 10.6217 16 8.5C16 6.37827 15.1571 4.34344 13.6569 2.84315C12.1566 1.34285 10.1217 0.5 8 0.5C5.87827 0.5 3.84344 1.34285 2.34315 2.84315C0.842855 4.34344 0 6.37827 0 8.5C0 10.6217 0.842855 12.6566 2.34315 14.1569C3.84344 15.6571 5.87827 16.5 8 16.5ZM9 4.5C9 4.23478 8.89464 3.98043 8.70711 3.79289C8.51957 3.60536 8.26522 3.5 8 3.5C7.73478 3.5 7.48043 3.60536 7.29289 3.79289C7.10536 3.98043 7 4.23478 7 4.5V8.5C7.00006 8.76519 7.10545 9.01951 7.293 9.207L10.121 12.036C10.2139 12.1289 10.3242 12.2026 10.4456 12.2529C10.567 12.3032 10.6971 12.3291 10.8285 12.3291C10.9599 12.3291 11.09 12.3032 11.2114 12.2529C11.3328 12.2026 11.4431 12.1289 11.536 12.036C11.6289 11.9431 11.7026 11.8328 11.7529 11.7114C11.8032 11.59 11.8291 11.4599 11.8291 11.3285C11.8291 11.1971 11.8032 11.067 11.7529 10.9456C11.7026 10.8242 11.6289 10.7139 11.536 10.621L9 8.086V4.5Z" fill="#312E45"/>
</svg>
