<svg width="20" height="20" viewBox="0 0 20 20" fill="none" xmlns="http://www.w3.org/2000/svg">
<path d="M2.00305 5.884L10.0001 9.882L17.9971 5.884C17.9674 5.37444 17.7441 4.89549 17.3729 4.54523C17.0016 4.19497 16.5105 3.99991 16.0001 4H4.00005C3.48964 3.99991 2.9985 4.19497 2.62723 4.54523C2.25596 4.89549 2.03266 5.37444 2.00305 5.884Z" fill="#1C1A27"/>
<path d="M18 8.11792L10 12.1179L2 8.11792V13.9999C2 14.5304 2.21071 15.0391 2.58579 15.4141C2.96086 15.7892 3.46957 15.9999 4 15.9999H16C16.5304 15.9999 17.0391 15.7892 17.4142 15.4141C17.7893 15.0391 18 14.5304 18 13.9999V8.11792Z" fill="#1C1A27"/>
</svg>
