<svg width="24" height="24" viewBox="0 0 24 24" fill="none" xmlns="http://www.w3.org/2000/svg">
<path fill-rule="evenodd" clip-rule="evenodd" d="M9.59961 4.80039C8.64483 4.80039 7.72916 5.17968 7.05402 5.85481C6.37889 6.52994 5.99961 7.44561 5.99961 8.40039V13.2004C5.99961 14.7917 6.63175 16.3178 7.75697 17.443C8.88219 18.5683 10.4083 19.2004 11.9996 19.2004C13.5909 19.2004 15.117 18.5683 16.2422 17.443C17.3675 16.3178 17.9996 14.7917 17.9996 13.2004V8.40039C17.9996 8.08213 18.126 7.77691 18.3511 7.55186C18.5761 7.32682 18.8813 7.20039 19.1996 7.20039C19.5179 7.20039 19.8231 7.32682 20.0481 7.55186C20.2732 7.77691 20.3996 8.08213 20.3996 8.40039V13.2004C20.3996 14.3035 20.1823 15.3958 19.7602 16.4149C19.3381 17.4341 18.7193 18.3601 17.9393 19.1401C17.1593 19.9201 16.2333 20.5388 15.2141 20.961C14.195 21.3831 13.1027 21.6004 11.9996 21.6004C10.8965 21.6004 9.8042 21.3831 8.78507 20.961C7.76593 20.5388 6.83992 19.9201 6.05991 19.1401C5.2799 18.3601 4.66116 17.4341 4.23902 16.4149C3.81688 15.3958 3.59961 14.3035 3.59961 13.2004V8.40039C3.59961 6.80909 4.23175 5.28297 5.35697 4.15775C6.48219 3.03253 8.00831 2.40039 9.59961 2.40039C11.1909 2.40039 12.717 3.03253 13.8422 4.15775C14.9675 5.28297 15.5996 6.80909 15.5996 8.40039V13.2004C15.5996 14.1552 15.2203 15.0708 14.5452 15.746C13.8701 16.4211 12.9544 16.8004 11.9996 16.8004C11.0448 16.8004 10.1292 16.4211 9.45402 15.746C8.77889 15.0708 8.39961 14.1552 8.39961 13.2004V8.40039C8.39961 8.08213 8.52604 7.77691 8.75108 7.55186C8.97612 7.32682 9.28135 7.20039 9.59961 7.20039C9.91787 7.20039 10.2231 7.32682 10.4481 7.55186C10.6732 7.77691 10.7996 8.08213 10.7996 8.40039V13.2004C10.7996 13.5187 10.926 13.8239 11.1511 14.0489C11.3761 14.274 11.6813 14.4004 11.9996 14.4004C12.3179 14.4004 12.6231 14.274 12.8481 14.0489C13.0732 13.8239 13.1996 13.5187 13.1996 13.2004V8.40039C13.1996 7.44561 12.8203 6.52994 12.1452 5.85481C11.4701 5.17968 10.5544 4.80039 9.59961 4.80039Z" fill="#18181B"/>
</svg>
