<svg width="24" height="24" viewBox="0 0 24 24" fill="none" xmlns="http://www.w3.org/2000/svg">
<path d="M20.9363 13.0728C21.1354 12.9731 21.3027 12.8199 21.4197 12.6304C21.5367 12.441 21.5986 12.2227 21.5986 12C21.5986 11.7774 21.5367 11.5591 21.4197 11.3696C21.3027 11.1802 21.1354 11.027 20.9363 10.9272L4.13631 2.52723C3.92801 2.423 3.69387 2.38165 3.46247 2.40822C3.23106 2.43479 3.01239 2.52813 2.83313 2.67686C2.65387 2.82559 2.52176 3.02327 2.45294 3.2458C2.38411 3.46832 2.38153 3.70607 2.44551 3.93003L4.16031 9.93003C4.23204 10.1808 4.38352 10.4014 4.59182 10.5584C4.80011 10.7153 5.05389 10.8002 5.31471 10.8L10.7999 10.8C11.1182 10.8 11.4234 10.9265 11.6484 11.1515C11.8735 11.3765 11.9999 11.6818 11.9999 12C11.9999 12.3183 11.8735 12.6235 11.6484 12.8486C11.4234 13.0736 11.1182 13.2 10.7999 13.2L5.31471 13.2C5.05389 13.1999 4.80011 13.2847 4.59182 13.4417C4.38352 13.5987 4.23204 13.8193 4.16031 14.07L2.44671 20.07C2.3826 20.2939 2.38502 20.5316 2.45369 20.7542C2.52236 20.9767 2.65429 21.1745 2.83342 21.3233C3.01254 21.4722 3.2311 21.5657 3.46245 21.5924C3.6938 21.6192 3.92794 21.5781 4.13631 21.474L20.9363 13.074L20.9363 13.0728Z" fill="#2751F2"/>
</svg>
