<svg width="10" height="11" viewBox="0 0 10 11" fill="none" xmlns="http://www.w3.org/2000/svg">
<path fill-rule="evenodd" clip-rule="evenodd" d="M5 0.5C5.26522 0.5 5.51957 0.605357 5.70711 0.792893C5.89464 0.98043 6 1.23478 6 1.5V4.5H9C9.26522 4.5 9.51957 4.60536 9.70711 4.79289C9.89464 4.98043 10 5.23478 10 5.5C10 5.76522 9.89464 6.01957 9.70711 6.20711C9.51957 6.39464 9.26522 6.5 9 6.5H6V9.5C6 9.76522 5.89464 10.0196 5.70711 10.2071C5.51957 10.3946 5.26522 10.5 5 10.5C4.73478 10.5 4.48043 10.3946 4.29289 10.2071C4.10536 10.0196 4 9.76522 4 9.5V6.5H1C0.734784 6.5 0.48043 6.39464 0.292893 6.20711C0.105357 6.01957 0 5.76522 0 5.5C0 5.23478 0.105357 4.98043 0.292893 4.79289C0.48043 4.60536 0.734784 4.5 1 4.5H4V1.5C4 1.23478 4.10536 0.98043 4.29289 0.792893C4.48043 0.605357 4.73478 0.5 5 0.5Z" fill="#2751F2"/>
</svg>
