<svg width="11" height="7" viewBox="0 0 11 7" fill="none" xmlns="http://www.w3.org/2000/svg">
<path fill-rule="evenodd" clip-rule="evenodd" d="M0.293031 0.793081C0.480558 0.60561 0.734866 0.500295 1.00003 0.500295C1.26519 0.500295 1.5195 0.60561 1.70703 0.793081L5.00003 4.08608L8.29303 0.793081C8.38528 0.697571 8.49562 0.621389 8.61763 0.56898C8.73963 0.516571 8.87085 0.488985 9.00363 0.487831C9.13641 0.486677 9.26809 0.511978 9.39098 0.562259C9.51388 0.61254 9.62553 0.686793 9.71943 0.780686C9.81332 0.874579 9.88757 0.986231 9.93785 1.10913C9.98813 1.23202 10.0134 1.3637 10.0123 1.49648C10.0111 1.62926 9.98354 1.76048 9.93113 1.88249C9.87872 2.00449 9.80254 2.11483 9.70703 2.20708L5.70703 6.20708C5.5195 6.39455 5.26519 6.49987 5.00003 6.49987C4.73487 6.49987 4.48056 6.39455 4.29303 6.20708L0.293031 2.20708C0.10556 2.01955 0.000244141 1.76525 0.000244141 1.50008C0.000244141 1.23492 0.10556 0.980609 0.293031 0.793081Z" fill="#1C1A27"/>
</svg>
