<svg width="10" height="7" viewBox="0 0 10 7" fill="none" xmlns="http://www.w3.org/2000/svg">
<path fill-rule="evenodd" clip-rule="evenodd" d="M9.70057 6.20093C9.51304 6.3884 9.25874 6.49371 8.99357 6.49371C8.72841 6.49371 8.4741 6.3884 8.28657 6.20093L4.99357 2.90793L1.70057 6.20093C1.51197 6.38308 1.25937 6.48388 0.99717 6.4816C0.734973 6.47932 0.484161 6.37415 0.298753 6.18875C0.113345 6.00334 0.0081756 5.75252 0.00589718 5.49033C0.00361876 5.22813 0.104414 4.97553 0.286572 4.78693L4.28657 0.786927C4.4741 0.599456 4.72841 0.494141 4.99357 0.494141C5.25874 0.494141 5.51304 0.599456 5.70057 0.786927L9.70057 4.78693C9.88804 4.97445 9.99336 5.22876 9.99336 5.49393C9.99336 5.75909 9.88804 6.0134 9.70057 6.20093Z" fill="#1C1A27"/>
</svg>
