<svg width="12" height="7" viewBox="0 0 12 7" fill="none" xmlns="http://www.w3.org/2000/svg">
<path fill-rule="evenodd" clip-rule="evenodd" d="M1.28693 0.799063C1.47445 0.611592 1.72876 0.506276 1.99393 0.506276C2.25909 0.506276 2.5134 0.611592 2.70093 0.799063L5.99393 4.09206L9.28693 0.799063C9.37917 0.703553 9.48952 0.62737 9.61152 0.574961C9.73353 0.522552 9.86475 0.494966 9.99753 0.493812C10.1303 0.492658 10.262 0.51796 10.3849 0.568241C10.5078 0.618522 10.6194 0.692775 10.7133 0.786667C10.8072 0.88056 10.8815 0.992212 10.9317 1.11511C10.982 1.238 11.0073 1.36968 11.0062 1.50246C11.005 1.63524 10.9774 1.76646 10.925 1.88847C10.8726 2.01047 10.7964 2.12082 10.7009 2.21306L6.70093 6.21306C6.5134 6.40053 6.25909 6.50585 5.99393 6.50585C5.72876 6.50585 5.47445 6.40053 5.28693 6.21306L1.28693 2.21306C1.09946 2.02553 0.994141 1.77123 0.994141 1.50606C0.994141 1.2409 1.09946 0.986591 1.28693 0.799063V0.799063Z" fill="#1C1A27"/>
</svg>
