<svg width="20" height="20" viewBox="0 0 20 20" fill="none" xmlns="http://www.w3.org/2000/svg">
<path d="M13.586 3.58592C13.7705 3.3949 13.9912 3.24253 14.2352 3.13772C14.4792 3.0329 14.7416 2.97772 15.0072 2.97542C15.2728 2.97311 15.5361 3.02371 15.7819 3.12427C16.0277 3.22484 16.251 3.37334 16.4388 3.56113C16.6266 3.74891 16.7751 3.97222 16.8756 4.21801C16.9762 4.4638 17.0268 4.72716 17.0245 4.99272C17.0222 5.25828 16.967 5.52072 16.8622 5.76473C16.7574 6.00874 16.605 6.22942 16.414 6.41392L15.621 7.20692L12.793 4.37892L13.586 3.58592ZM11.379 5.79292L3 14.1719V16.9999H5.828L14.208 8.62092L11.378 5.79292H11.379Z" fill="#2751F2"/>
</svg>
