<svg width="16" height="15" viewBox="0 0 16 15" fill="none" xmlns="http://www.w3.org/2000/svg">
<path d="M7.29897 1.42708C7.59897 0.506078 8.90197 0.506078 9.20097 1.42708L10.271 4.71908C10.3363 4.91957 10.4634 5.09426 10.634 5.21818C10.8047 5.34211 11.0101 5.40892 11.221 5.40908H14.683C15.652 5.40908 16.054 6.64908 15.271 7.21908L12.471 9.25308C12.3 9.37711 12.1727 9.55209 12.1073 9.75293C12.0419 9.95377 12.0418 10.1702 12.107 10.3711L13.177 13.6631C13.477 14.5841 12.422 15.3511 11.637 14.7811L8.83697 12.7471C8.66618 12.6231 8.46053 12.5563 8.24947 12.5563C8.03842 12.5563 7.83277 12.6231 7.66197 12.7471L4.86197 14.7811C4.07797 15.3511 3.02397 14.5841 3.32297 13.6631L4.39297 10.3711C4.45815 10.1702 4.45803 9.95377 4.39264 9.75293C4.32725 9.55209 4.19994 9.37711 4.02897 9.25308L1.22997 7.22008C0.446974 6.65008 0.849974 5.41008 1.81797 5.41008H5.27897C5.49002 5.41013 5.69568 5.34342 5.8665 5.21948C6.03732 5.09554 6.16455 4.92073 6.22997 4.72008L7.29997 1.42808L7.29897 1.42708Z" fill="#FFC14E"/>
</svg>
