<svg width="20" height="21" viewBox="0 0 20 21" fill="none" xmlns="http://www.w3.org/2000/svg">
<path fill-rule="evenodd" clip-rule="evenodd" d="M12.7068 6.28009C12.8943 6.46762 12.9996 6.72193 12.9996 6.98709C12.9996 7.25226 12.8943 7.50656 12.7068 7.69409L9.41379 10.9871L12.7068 14.2801C12.8889 14.4687 12.9897 14.7213 12.9875 14.9835C12.9852 15.2457 12.88 15.4965 12.6946 15.6819C12.5092 15.8673 12.2584 15.9725 11.9962 15.9748C11.734 15.977 11.4814 15.8762 11.2928 15.6941L7.29279 11.6941C7.10532 11.5066 7 11.2523 7 10.9871C7 10.7219 7.10532 10.4676 7.29279 10.2801L11.2928 6.28009C11.4803 6.09262 11.7346 5.9873 11.9998 5.9873C12.265 5.9873 12.5193 6.09262 12.7068 6.28009Z" fill="#2751F2"/>
</svg>
