<svg width="20" height="21" viewBox="0 0 20 21" fill="none" xmlns="http://www.w3.org/2000/svg">
<path fill-rule="evenodd" clip-rule="evenodd" d="M7.29279 15.6942C7.10532 15.5067 7 15.2524 7 14.9872C7 14.7221 7.10532 14.4678 7.29279 14.2802L10.5858 10.9872L7.29279 7.69422C7.11063 7.50562 7.00983 7.25302 7.01211 6.99082C7.01439 6.72863 7.11956 6.47781 7.30497 6.29241C7.49038 6.107 7.74119 6.00183 8.00339 5.99955C8.26558 5.99727 8.51818 6.09807 8.70679 6.28022L12.7068 10.2802C12.8943 10.4678 12.9996 10.7221 12.9996 10.9872C12.9996 11.2524 12.8943 11.5067 12.7068 11.6942L8.70679 15.6942C8.51926 15.8817 8.26495 15.987 7.99979 15.987C7.73462 15.987 7.48031 15.8817 7.29279 15.6942Z" fill="#2751F2"/>
</svg>
