<svg width="16" height="19" viewBox="0 0 16 19" fill="none" xmlns="http://www.w3.org/2000/svg">
<path fill-rule="evenodd" clip-rule="evenodd" d="M1.3998 2.89995C1.3998 2.31647 1.63159 1.7569 2.04417 1.34432C2.45675 0.931736 3.01633 0.699951 3.5998 0.699951H12.3998C12.9833 0.699951 13.5429 0.931736 13.9554 1.34432C14.368 1.7569 14.5998 2.31647 14.5998 2.89995V16.0999C14.8915 16.0999 15.1713 16.2158 15.3776 16.4221C15.5839 16.6284 15.6998 16.9082 15.6998 17.1999C15.6998 17.4917 15.5839 17.7715 15.3776 17.9778C15.1713 18.1841 14.8915 18.2999 14.5998 18.2999H11.2998C11.0081 18.2999 10.7283 18.1841 10.522 17.9778C10.3157 17.7715 10.1998 17.4917 10.1998 17.1999V15C10.1998 14.7082 10.0839 14.4284 9.87762 14.2221C9.67133 14.0158 9.39154 13.9 9.0998 13.9H6.89981C6.60807 13.9 6.32828 14.0158 6.12199 14.2221C5.9157 14.4284 5.7998 14.7082 5.7998 15V17.1999C5.7998 17.4917 5.68391 17.7715 5.47762 17.9778C5.27133 18.1841 4.99154 18.2999 4.6998 18.2999H1.3998C1.10807 18.2999 0.828277 18.1841 0.621987 17.9778C0.415697 17.7715 0.299805 17.4917 0.299805 17.1999C0.299805 16.9082 0.415697 16.6284 0.621987 16.4221C0.828277 16.2158 1.10807 16.0999 1.3998 16.0999V2.89995ZM4.6998 3.99995H6.89981V6.19995H4.6998V3.99995ZM6.89981 8.39995H4.6998V10.6H6.89981V8.39995ZM9.0998 3.99995H11.2998V6.19995H9.0998V3.99995ZM11.2998 8.39995H9.0998V10.6H11.2998V8.39995Z" fill="#312E45"/>
</svg>
