<svg width="20" height="21" viewBox="0 0 20 21" fill="none" xmlns="http://www.w3.org/2000/svg">
<path fill-rule="evenodd" clip-rule="evenodd" d="M6 2.5C5.73478 2.5 5.48043 2.60536 5.29289 2.79289C5.10536 2.98043 5 3.23478 5 3.5V4.5H4C3.46957 4.5 2.96086 4.71071 2.58579 5.08579C2.21071 5.46086 2 5.96957 2 6.5V16.5C2 17.0304 2.21071 17.5391 2.58579 17.9142C2.96086 18.2893 3.46957 18.5 4 18.5H16C16.5304 18.5 17.0391 18.2893 17.4142 17.9142C17.7893 17.5391 18 17.0304 18 16.5V6.5C18 5.96957 17.7893 5.46086 17.4142 5.08579C17.0391 4.71071 16.5304 4.5 16 4.5H15V3.5C15 3.23478 14.8946 2.98043 14.7071 2.79289C14.5196 2.60536 14.2652 2.5 14 2.5C13.7348 2.5 13.4804 2.60536 13.2929 2.79289C13.1054 2.98043 13 3.23478 13 3.5V4.5H7V3.5C7 3.23478 6.89464 2.98043 6.70711 2.79289C6.51957 2.60536 6.26522 2.5 6 2.5ZM6 7.5C5.73478 7.5 5.48043 7.60536 5.29289 7.79289C5.10536 7.98043 5 8.23478 5 8.5C5 8.76522 5.10536 9.01957 5.29289 9.20711C5.48043 9.39464 5.73478 9.5 6 9.5H14C14.2652 9.5 14.5196 9.39464 14.7071 9.20711C14.8946 9.01957 15 8.76522 15 8.5C15 8.23478 14.8946 7.98043 14.7071 7.79289C14.5196 7.60536 14.2652 7.5 14 7.5H6Z" fill="#4D4868"/>
</svg>
