<svg width="20" height="21" viewBox="0 0 20 21" fill="none" xmlns="http://www.w3.org/2000/svg">
<path fill-rule="evenodd" clip-rule="evenodd" d="M18 5.5V13.5C18 14.0304 17.7893 14.5391 17.4142 14.9142C17.0391 15.2893 16.5304 15.5 16 15.5H11L6 19.5V15.5H4C3.46957 15.5 2.96086 15.2893 2.58579 14.9142C2.21071 14.5391 2 14.0304 2 13.5V5.5C2 4.96957 2.21071 4.46086 2.58579 4.08579C2.96086 3.71071 3.46957 3.5 4 3.5H16C16.5304 3.5 17.0391 3.71071 17.4142 4.08579C17.7893 4.46086 18 4.96957 18 5.5ZM7 8.5H5V10.5H7V8.5ZM9 8.5H11V10.5H9V8.5ZM15 8.5H13V10.5H15V8.5Z" fill="#312E45"/>
</svg>
