<svg width="21" height="21" viewBox="0 0 21 21" fill="none" xmlns="http://www.w3.org/2000/svg">
<path d="M10.894 2.57991C10.7695 2.52654 10.6355 2.49902 10.5 2.49902C10.3646 2.49902 10.2305 2.52654 10.106 2.57991L3.10601 5.57991C2.92562 5.65676 2.7718 5.78494 2.66368 5.94851C2.55557 6.11209 2.49792 6.30384 2.49792 6.49991C2.49792 6.69599 2.55557 6.88774 2.66368 7.05131C2.7718 7.21489 2.92562 7.34307 3.10601 7.41991L5.75001 8.55091C5.84815 8.43991 5.96975 8.35212 6.10601 8.29391L10.106 6.57991C10.227 6.52596 10.3576 6.49661 10.4901 6.49356C10.6226 6.49051 10.7544 6.51383 10.8777 6.56215C11.0011 6.61048 11.1137 6.68284 11.2089 6.77505C11.3041 6.86725 11.38 6.97746 11.4322 7.09926C11.4844 7.22106 11.5119 7.35202 11.5131 7.48454C11.5142 7.61705 11.489 7.74848 11.439 7.87117C11.3889 7.99387 11.3149 8.10539 11.2214 8.19925C11.1278 8.29311 11.0165 8.36744 10.894 8.41791L8.16701 9.58791L10.107 10.4189C10.2314 10.4721 10.3652 10.4996 10.5005 10.4996C10.6358 10.4996 10.7696 10.4721 10.894 10.4189L17.894 7.41891C18.0738 7.34178 18.227 7.2136 18.3347 7.05025C18.4424 6.8869 18.4997 6.69556 18.4997 6.49991C18.4997 6.30427 18.4424 6.11293 18.3347 5.94958C18.227 5.78623 18.0738 5.65805 17.894 5.58091L10.894 2.58091V2.57991ZM3.81001 9.89691L5.50001 10.6199V14.7219C5.15376 14.6432 4.80314 14.5851 4.45001 14.5479C4.22215 14.524 4.00943 14.4225 3.84742 14.2605C3.68542 14.0985 3.58395 13.8858 3.56001 13.6579C3.4285 12.3988 3.51305 11.1265 3.81001 9.89591V9.89691ZM9.80001 17.0729C9.12402 16.4096 8.34786 15.8569 7.50001 15.4349V11.4779L9.31801 12.2579C9.6915 12.418 10.0936 12.5006 10.5 12.5006C10.9064 12.5006 11.3085 12.418 11.682 12.2579L17.19 9.89691C17.4887 11.1273 17.5733 12.3999 17.44 13.6589C17.4161 13.8868 17.3146 14.0995 17.1526 14.2615C16.9906 14.4235 16.7779 14.525 16.55 14.5489C14.5325 14.7609 12.6465 15.6507 11.2 17.0729C11.0131 17.2561 10.7618 17.3588 10.5 17.3588C10.2383 17.3588 9.98694 17.2561 9.80001 17.0729ZM6.50001 18.4999C6.76522 18.4999 7.01958 18.3946 7.20711 18.207C7.39465 18.0195 7.50001 17.7651 7.50001 17.4999V15.4349C6.864 15.1189 6.1926 14.8799 5.50001 14.7229V17.4999C5.50001 17.7651 5.60536 18.0195 5.7929 18.207C5.98044 18.3946 6.23479 18.4999 6.50001 18.4999Z" fill="#4D4868"/>
</svg>
