<svg width="14" height="17" viewBox="0 0 14 17" fill="none" xmlns="http://www.w3.org/2000/svg">
<path fill-rule="evenodd" clip-rule="evenodd" d="M8.757 0.53399C9.034 0.60699 9.266 0.795971 9.395 1.05297C9.878 2.01997 10.239 2.607 10.602 3.083C10.97 3.565 11.358 3.95898 11.95 4.54998C13.316 5.91698 14 7.70999 14 9.49999C14 11.29 13.316 13.083 11.95 14.45C9.216 17.183 4.784 17.183 2.05 14.45C0.684003 13.083 0 11.29 0 9.49999C0 7.70999 0.684003 5.91698 2.05 4.54998C2.336 4.26398 2.766 4.17898 3.14 4.33398C3.514 4.48798 3.757 4.85301 3.757 5.25701C3.757 6.37701 3.827 7.23 4.155 7.911C4.335 8.285 4.61601 8.65102 5.10001 8.97802C5.21601 7.91702 5.428 6.624 5.714 5.398C5.939 4.432 6.21899 3.46799 6.55299 2.66399C6.71999 2.26099 6.909 1.87897 7.123 1.54797C7.331 1.22597 7.59901 0.899023 7.94501 0.668023C8.18401 0.509023 8.48 0.45999 8.757 0.53399ZM9.121 13.621C7.95 14.793 6.05 14.793 4.879 13.621C4.293 13.036 4 12.268 4 11.5C4 11.5 4.879 12 6.5 12C6.5 11 7 7.99999 7.75 7.49999C8.25 8.49999 8.536 8.79302 9.121 9.37902C9.707 9.96402 10 10.732 10 11.5C10 12.268 9.707 13.036 9.121 13.621Z" fill="#4D4868"/>
</svg>
