<svg width="18" height="19" viewBox="0 0 18 19" fill="none" xmlns="http://www.w3.org/2000/svg">
<path fill-rule="evenodd" clip-rule="evenodd" d="M5.69983 0.699951C5.4823 0.699998 5.26967 0.764537 5.08882 0.885409C4.90797 1.00628 4.76702 1.17806 4.68378 1.37903C4.60055 1.58 4.57876 1.80114 4.62119 2.01449C4.66361 2.22783 4.76834 2.42381 4.92213 2.57765L5.69983 3.35535V7.48915C5.69977 7.78086 5.58383 8.06061 5.37753 8.26685L0.977529 12.6669C-1.10147 14.7458 0.371429 18.2999 3.31063 18.2999H14.6879C17.6282 18.2999 19.1011 14.7458 17.0221 12.6669L12.6221 8.26685C12.4158 8.06061 12.2999 7.78086 12.2998 7.48915V3.35535L13.0775 2.57765C13.2313 2.42381 13.336 2.22783 13.3785 2.01449C13.4209 1.80114 13.3991 1.58 13.3159 1.37903C13.2326 1.17806 13.0917 1.00628 12.9108 0.885409C12.73 0.764537 12.5174 0.699998 12.2998 0.699951H5.69983ZM7.89983 7.48915V2.89995H10.0998V7.48915C10.1003 8.36391 10.4481 9.20269 11.0667 9.82115L12.1964 10.952C11.4053 10.7682 10.5787 10.8071 9.80833 11.0641L9.29133 11.2358C8.38809 11.5369 7.41156 11.5369 6.50833 11.2358L5.88903 11.0301C5.84762 11.016 5.8058 11.0031 5.76363 10.9916L6.93293 9.82225C7.55184 9.20352 7.89964 8.36429 7.89983 7.48915Z" fill="#312E45"/>
</svg>
