<svg width="43" height="43" viewBox="0 0 43 43" fill="none" xmlns="http://www.w3.org/2000/svg">
<path d="M34.0417 37.625V8.95833C34.0417 8.00797 33.6641 7.09654 32.9921 6.42453C32.3201 5.75253 31.4087 5.375 30.4583 5.375H12.5417C11.5913 5.375 10.6799 5.75253 10.0079 6.42453C9.33586 7.09654 8.95833 8.00797 8.95833 8.95833V37.625M34.0417 37.625H8.95833M34.0417 37.625H37.625M34.0417 37.625H25.0833M8.95833 37.625H5.375M8.95833 37.625H17.9167M25.0833 37.625V28.6667C25.0833 28.1915 24.8946 27.7358 24.5586 27.3998C24.2226 27.0638 23.7668 26.875 23.2917 26.875H19.7083C19.2332 26.875 18.7774 27.0638 18.4414 27.3998C18.1054 27.7358 17.9167 28.1915 17.9167 28.6667V37.625M25.0833 37.625H17.9167M16.125 12.5417H17.9167M16.125 19.7083H17.9167M25.0833 12.5417H26.875M25.0833 19.7083H26.875" stroke="white" stroke-width="3" stroke-linecap="round" stroke-linejoin="round"/>
</svg>
