<svg width="43" height="43" viewBox="0 0 43 43" fill="none" xmlns="http://www.w3.org/2000/svg">
<path d="M37.625 23.7487C32.5017 25.8203 27.0263 26.8819 21.5 26.8752C15.7971 26.8752 10.3558 25.7643 5.375 23.7487M21.5 21.5002H21.5179M28.6667 10.7502V7.16683C28.6667 6.21647 28.2891 5.30504 27.6171 4.63303C26.9451 3.96102 26.0337 3.5835 25.0833 3.5835H17.9167C16.9663 3.5835 16.0549 3.96102 15.3829 4.63303C14.7109 5.30504 14.3333 6.21647 14.3333 7.16683V10.7502H28.6667ZM8.95833 35.8335H34.0417C34.992 35.8335 35.9035 35.456 36.5755 34.784C37.2475 34.112 37.625 33.2005 37.625 32.2502V14.3335C37.625 13.3831 37.2475 12.4717 36.5755 11.7997C35.9035 11.1277 34.992 10.7502 34.0417 10.7502H8.95833C8.00797 10.7502 7.09654 11.1277 6.42453 11.7997C5.75253 12.4717 5.375 13.3831 5.375 14.3335V32.2502C5.375 33.2005 5.75253 34.112 6.42453 34.784C7.09654 35.456 8.00797 35.8335 8.95833 35.8335Z" stroke="#2751F2" stroke-width="3" stroke-linecap="round" stroke-linejoin="round"/>
</svg>
