<svg width="16" height="16" viewBox="0 0 16 16" fill="none" xmlns="http://www.w3.org/2000/svg">
<path d="M15.7098 7.29L8.70977 0.29C8.51977 0.11 8.26977 0 7.99977 0C7.72977 0 7.47977 0.11 7.28977 0.29L0.289766 7.29C0.109766 7.48 0.00976562 7.73 0.00976562 8C0.00976562 8.26 0.119766 8.51 0.309766 8.69C0.489766 8.88 0.739766 8.99 0.999766 8.99C1.26977 8.99 1.51977 8.89 1.70977 8.71L1.99977 8.41V15C1.99977 15.27 2.10977 15.52 2.28977 15.71C2.47977 15.89 2.72977 16 2.99977 16H4.99977C5.26977 16 5.51977 15.89 5.70977 15.71C5.88977 15.52 5.99977 15.27 5.99977 15V13C5.99977 12.73 6.10977 12.48 6.28977 12.29C6.47977 12.11 6.72977 12 6.99977 12H8.99977C9.26977 12 9.51977 12.11 9.70977 12.29C9.88977 12.48 9.99977 12.73 9.99977 13V15C9.99977 15.27 10.1098 15.52 10.2898 15.71C10.4798 15.89 10.7298 16 10.9998 16H12.9998C13.2698 16 13.5198 15.89 13.7098 15.71C13.8898 15.52 13.9998 15.27 13.9998 15V8.41L14.2898 8.71C14.4798 8.89 14.7298 8.99 14.9998 8.99C15.2598 8.99 15.5098 8.88 15.6898 8.69C15.8798 8.51 15.9898 8.26 15.9898 8C15.9898 7.73 15.8898 7.48 15.7098 7.29ZM9.99977 8H8.99977V9C8.99977 9.55 8.54977 10 7.99977 10C7.44977 10 6.99977 9.55 6.99977 9V8H5.99977C5.44977 8 4.99977 7.55 4.99977 7C4.99977 6.45 5.44977 6 5.99977 6H6.99977V5C6.99977 4.45 7.44977 4 7.99977 4C8.54977 4 8.99977 4.45 8.99977 5V6H9.99977C10.5498 6 10.9998 6.45 10.9998 7C10.9998 7.55 10.5498 8 9.99977 8Z" fill="#312E45"/>
</svg>
