<svg width="16" height="15" viewBox="0 0 16 15" fill="none" xmlns="http://www.w3.org/2000/svg">
<path fill-rule="evenodd" clip-rule="evenodd" d="M8 0C7.73478 0 7.48043 0.105357 7.29289 0.292893C7.10536 0.48043 7 0.734784 7 1V2C7 2.26522 7.10536 2.51957 7.29289 2.70711C7.48043 2.89464 7.73478 3 8 3C8.26522 3 8.51957 2.89464 8.70711 2.70711C8.89464 2.51957 9 2.26522 9 2V1C9 0.734784 8.89464 0.48043 8.70711 0.292893C8.51957 0.105357 8.26522 0 8 0ZM2 2H5C5 2.79565 5.31607 3.55871 5.87868 4.12132C6.44129 4.68393 7.20435 5 8 5C8.79565 5 9.55871 4.68393 10.1213 4.12132C10.6839 3.55871 11 2.79565 11 2H14C14.5304 2 15.0391 2.21071 15.4142 2.58579C15.7893 2.96086 16 3.46957 16 4V13C16 13.5304 15.7893 14.0391 15.4142 14.4142C15.0391 14.7893 14.5304 15 14 15H2C1.46957 15 0.960859 14.7893 0.585786 14.4142C0.210714 14.0391 0 13.5304 0 13V4C0 3.46957 0.210714 2.96086 0.585786 2.58579C0.960859 2.21071 1.46957 2 2 2ZM4.5 9C4.89782 9 5.27936 8.84196 5.56066 8.56066C5.84196 8.27936 6 7.89782 6 7.5C6 7.10218 5.84196 6.72064 5.56066 6.43934C5.27936 6.15804 4.89782 6 4.5 6C4.10218 6 3.72064 6.15804 3.43934 6.43934C3.15804 6.72064 3 7.10218 3 7.5C3 7.89782 3.15804 8.27936 3.43934 8.56066C3.72064 8.84196 4.10218 9 4.5 9ZM6.95 13C7.02373 12.6369 7.01583 12.262 6.92688 11.9023C6.83793 11.5426 6.67015 11.2072 6.43568 10.9204C6.20121 10.6335 5.90591 10.4023 5.57114 10.2436C5.23637 10.0849 4.8705 10.0025 4.5 10.0025C4.1295 10.0025 3.76363 10.0849 3.42886 10.2436C3.09409 10.4023 2.79879 10.6335 2.56432 10.9204C2.32985 11.2072 2.16207 11.5426 2.07312 11.9023C1.98417 12.262 1.97627 12.6369 2.05 13H6.95ZM10 7C9.73478 7 9.48043 7.10536 9.29289 7.29289C9.10536 7.48043 9 7.73478 9 8C9 8.26522 9.10536 8.51957 9.29289 8.70711C9.48043 8.89464 9.73478 9 10 9H13C13.2652 9 13.5196 8.89464 13.7071 8.70711C13.8946 8.51957 14 8.26522 14 8C14 7.73478 13.8946 7.48043 13.7071 7.29289C13.5196 7.10536 13.2652 7 13 7H10ZM9 11C9 10.7348 9.10536 10.4804 9.29289 10.2929C9.48043 10.1054 9.73478 10 10 10H12C12.2652 10 12.5196 10.1054 12.7071 10.2929C12.8946 10.4804 13 10.7348 13 11C13 11.2652 12.8946 11.5196 12.7071 11.7071C12.5196 11.8946 12.2652 12 12 12H10C9.73478 12 9.48043 11.8946 9.29289 11.7071C9.10536 11.5196 9 11.2652 9 11Z" fill="#312E45"/>
</svg>
