<svg width="28" height="20" viewBox="0 0 28 20" fill="none" xmlns="http://www.w3.org/2000/svg">
<rect width="28" height="20" rx="2" fill="white"/>
<mask id="mask0_1575_7394" style="mask-type:alpha" maskUnits="userSpaceOnUse" x="0" y="0" width="28" height="20">
<rect width="28" height="20" rx="2" fill="white"/>
</mask>
<g mask="url(#mask0_1575_7394)">
<rect width="28" height="20" fill="#0A17A7"/>
<path fill-rule="evenodd" clip-rule="evenodd" d="M-1.28226 -1.91602L10.6669 6.14378V-1.3329H17.3335V6.14378L29.2827 -1.91602L30.7739 0.294751L21.3265 6.6671H28.0002V13.3338H21.3265L30.7739 19.7061L29.2827 21.9169L17.3335 13.8571V21.3338H10.6669V13.8571L-1.28226 21.9169L-2.77344 19.7061L6.67395 13.3338H0.000212669V6.6671H6.67395L-2.77344 0.294751L-1.28226 -1.91602Z" fill="white"/>
<path d="M18.668 6.33219L31.3333 -2" stroke="#DB1F35" stroke-width="0.666667" stroke-linecap="round"/>
<path d="M20.0127 13.6978L31.3665 21.3506" stroke="#DB1F35" stroke-width="0.666667" stroke-linecap="round"/>
<path d="M8.00562 6.31055L-3.8374 -1.6709" stroke="#DB1F35" stroke-width="0.666667" stroke-linecap="round"/>
<path d="M9.29012 13.605L-3.8374 22.3105" stroke="#DB1F35" stroke-width="0.666667" stroke-linecap="round"/>
<path fill-rule="evenodd" clip-rule="evenodd" d="M0 12H12V20H16V12H28V8H16V0H12V8H0V12Z" fill="#E6273E"/>
</g>
</svg>
