<svg width="16" height="16" viewBox="0 0 16 16" fill="none" xmlns="http://www.w3.org/2000/svg">
<path fill-rule="evenodd" clip-rule="evenodd" d="M11.477 12.89C10.3213 13.7114 8.91213 14.0971 7.49925 13.9785C6.08636 13.86 4.7611 13.245 3.75847 12.2424C2.75584 11.2399 2.14063 9.91475 2.02193 8.50188C1.90322 7.08901 2.2887 5.67975 3.11 4.524L11.477 12.892V12.89ZM12.891 11.476L4.524 3.11C5.67971 2.28801 7.08923 1.90197 8.50249 2.02037C9.91575 2.13877 11.2414 2.75395 12.2442 3.75678C13.247 4.75961 13.8622 6.08525 13.9806 7.49851C14.099 8.91177 13.713 10.3213 12.891 11.477V11.476ZM16 8C16 10.1217 15.1571 12.1566 13.6569 13.6569C12.1566 15.1571 10.1217 16 8 16C5.87827 16 3.84344 15.1571 2.34315 13.6569C0.842855 12.1566 0 10.1217 0 8C0 5.87827 0.842855 3.84344 2.34315 2.34315C3.84344 0.842855 5.87827 0 8 0C10.1217 0 12.1566 0.842855 13.6569 2.34315C15.1571 3.84344 16 5.87827 16 8Z" fill="#1C1A27"/>
</svg>
