<svg width="15" height="15" viewBox="0 0 15 15" fill="none" xmlns="http://www.w3.org/2000/svg">
<path d="M10.586 1.58604C10.7705 1.39502 10.9912 1.24266 11.2352 1.13784C11.4792 1.03302 11.7416 0.977847 12.0072 0.975539C12.2728 0.973232 12.5361 1.02384 12.7819 1.1244C13.0277 1.22496 13.251 1.37346 13.4388 1.56125C13.6266 1.74904 13.7751 1.97234 13.8756 2.21813C13.9762 2.46392 14.0268 2.72728 14.0245 2.99284C14.0222 3.2584 13.967 3.52084 13.8622 3.76485C13.7574 4.00886 13.605 4.22955 13.414 4.41404L12.621 5.20704L9.793 2.37904L10.586 1.58604ZM8.379 3.79304L0 12.172V15H2.828L11.208 6.62104L8.378 3.79304H8.379Z" fill="#1C1A27"/>
</svg>
